<svg width="97" height="104" viewBox="0 0 97 104" fill="none" xmlns="http://www.w3.org/2000/svg">
<path d="M3.89062 18.5781V16.1875H24.1875V18.5781H15.2812V49H12.7969V18.5781H3.89062ZM27 49V16.1875H44.0625V18.5781H29.4844V31.4219H39.6562V33.8594H29.4844V46.6094H44.0625V49H27ZM47.8125 40.5156C47.8125 42.3281 48.4844 44.0938 49.8281 45.8125C51.6406 48.0625 54.0938 49.2031 57.1875 49.2344V46.8438C54.5 46.8438 52.4844 45.6875 51.1406 43.375C50.5781 42.3438 50.2969 41.3906 50.2969 40.5156V24.7188C50.2969 23.2812 50.8906 21.9062 52.0781 20.5938C53.4219 19.125 55.125 18.375 57.1875 18.3438V15.9531C53.5938 15.9219 50.9062 17.4062 49.125 20.4062C48.25 21.9062 47.8125 23.3438 47.8125 24.7188V40.5156ZM59.3438 49.2344C61.9062 49.2344 64.0938 48.2656 65.9062 46.3281C67.4688 44.6094 68.25 42.6562 68.25 40.4688L66 39.9531C66 40.2656 65.9688 40.5469 65.9062 40.7969C65.8438 41.3594 65.75 41.8594 65.625 42.2969C65.2188 43.6094 64.4844 44.6406 63.4219 45.3906C62.3906 46.1406 61.4531 46.5625 60.6094 46.6562L59.3438 46.8438V49.2344ZM59.3438 18.3438C59.3438 18.3438 59.8438 18.4375 60.8438 18.625C63.1562 19.375 64.75 20.9375 65.625 23.3125C65.7812 23.8125 65.875 24.25 65.9062 24.625V25.4219L68.25 24.8125C68.25 22.4062 67.25 20.2812 65.25 18.4375C63.4375 16.7812 61.4688 15.9531 59.3438 15.9531V18.3438ZM71.8594 49V16.1875H74.3438V31.2812H80.0625V33.6719H74.3438V49H71.8594ZM82.2656 33.6719V31.2812H87.9844V16.1875H90.4688V49H87.9844V33.6719H82.2656Z" fill="white"/>
<path d="M5.95312 73.9531L15.2031 73.5781L15.2656 76.5781L5.98438 77.0312L6.10938 85L3.10938 85.125L2.75 62.8594L19.7188 62.5938L19.6094 65.5781L5.82812 65.7969L5.95312 73.9531ZM45.0781 73.9531C45.0781 75.0677 44.9375 76.1354 44.6562 77.1562C44.1042 79.1979 43.0885 80.9792 41.6094 82.5C40.8698 83.2604 40.0729 83.8906 39.2188 84.3906C38.3333 84.9219 37.3854 85.3333 36.375 85.625C35.375 85.9167 34.3333 86.0625 33.25 86.0625C32.1354 86.0625 31.0885 85.9167 30.1094 85.625C28.0885 85.0417 26.349 84 24.8906 82.5C24.2031 81.7917 23.5885 80.974 23.0469 80.0469C22.5365 79.151 22.1406 78.1927 21.8594 77.1719C21.5781 76.1406 21.4375 75.0677 21.4375 73.9531C21.4375 72.8385 21.5781 71.7656 21.8594 70.7344C22.4219 68.6615 23.4323 66.8802 24.8906 65.3906C25.599 64.6719 26.3958 64.0417 27.2812 63.5C28.1562 62.9792 29.099 62.5781 30.1094 62.2969C31.1198 62.0052 32.1667 61.8594 33.25 61.8594C34.3333 61.8594 35.3802 62 36.3906 62.2812C38.4115 62.8646 40.151 63.901 41.6094 65.3906C42.3281 66.1198 42.9479 66.9375 43.4688 67.8438C43.9896 68.7396 44.3854 69.7031 44.6562 70.7344C44.9375 71.7656 45.0781 72.8385 45.0781 73.9531ZM41.9844 73.9531C41.9844 73.1406 41.8802 72.3438 41.6719 71.5625C41.2448 70.0208 40.4948 68.6979 39.4219 67.5938C38.901 67.0521 38.3125 66.5833 37.6562 66.1875C36.3125 65.375 34.8438 64.9688 33.25 64.9688C32.0417 64.9688 30.9115 65.2083 29.8594 65.6875C28.8073 66.1562 27.8854 66.7969 27.0938 67.6094C26.3021 68.4219 25.6771 69.375 25.2188 70.4688C24.7708 71.5521 24.5469 72.7135 24.5469 73.9531C24.5469 75.1927 24.7708 76.3594 25.2188 77.4531C25.6771 78.5469 26.3021 79.5 27.0938 80.3125C27.8854 81.125 28.8073 81.7708 29.8594 82.25C30.9115 82.7188 32.0417 82.9531 33.25 82.9531C34.0521 82.9531 34.8281 82.8438 35.5781 82.625C37.0469 82.2083 38.3281 81.4375 39.4219 80.3125C39.9531 79.7604 40.4115 79.1562 40.7969 78.5C41.1719 77.8333 41.4635 77.1198 41.6719 76.3594C41.8802 75.5885 41.9844 74.7865 41.9844 73.9531ZM71.2969 73.9531C71.2969 75.0677 71.1562 76.1354 70.875 77.1562C70.3229 79.1979 69.3073 80.9792 67.8281 82.5C67.0885 83.2604 66.2917 83.8906 65.4375 84.3906C64.5521 84.9219 63.6042 85.3333 62.5938 85.625C61.5938 85.9167 60.5521 86.0625 59.4688 86.0625C58.3542 86.0625 57.3073 85.9167 56.3281 85.625C54.3073 85.0417 52.5677 84 51.1094 82.5C50.4219 81.7917 49.8073 80.974 49.2656 80.0469C48.7552 79.151 48.3594 78.1927 48.0781 77.1719C47.7969 76.1406 47.6562 75.0677 47.6562 73.9531C47.6562 72.8385 47.7969 71.7656 48.0781 70.7344C48.6406 68.6615 49.651 66.8802 51.1094 65.3906C51.8177 64.6719 52.6146 64.0417 53.5 63.5C54.375 62.9792 55.3177 62.5781 56.3281 62.2969C57.3385 62.0052 58.3854 61.8594 59.4688 61.8594C60.5521 61.8594 61.599 62 62.6094 62.2812C64.6302 62.8646 66.3698 63.901 67.8281 65.3906C68.5469 66.1198 69.1667 66.9375 69.6875 67.8438C70.2083 68.7396 70.6042 69.7031 70.875 70.7344C71.1562 71.7656 71.2969 72.8385 71.2969 73.9531ZM68.2031 73.9531C68.2031 73.1406 68.099 72.3438 67.8906 71.5625C67.4635 70.0208 66.7135 68.6979 65.6406 67.5938C65.1198 67.0521 64.5312 66.5833 63.875 66.1875C62.5312 65.375 61.0625 64.9688 59.4688 64.9688C58.2604 64.9688 57.1302 65.2083 56.0781 65.6875C55.026 66.1562 54.1042 66.7969 53.3125 67.6094C52.5208 68.4219 51.8958 69.375 51.4375 70.4688C50.9896 71.5521 50.7656 72.7135 50.7656 73.9531C50.7656 75.1927 50.9896 76.3594 51.4375 77.4531C51.8958 78.5469 52.5208 79.5 53.3125 80.3125C54.1042 81.125 55.026 81.7708 56.0781 82.25C57.1302 82.7188 58.2604 82.9531 59.4688 82.9531C60.2708 82.9531 61.0469 82.8438 61.7969 82.625C63.2656 82.2083 64.5469 81.4375 65.6406 80.3125C66.1719 79.7604 66.6302 79.1562 67.0156 78.5C67.3906 77.8333 67.6823 77.1198 67.8906 76.3594C68.099 75.5885 68.2031 74.7865 68.2031 73.9531ZM95.4062 73.5156C95.4062 74.9635 95.1562 76.276 94.6562 77.4531C94.1458 78.6198 93.4583 79.6615 92.5938 80.5781C91.7396 81.4844 90.7396 82.2604 89.5938 82.9062C89.0208 83.2292 88.4323 83.526 87.8281 83.7969C87.224 84.0677 86.6042 84.3073 85.9688 84.5156C84.6979 84.9323 83.401 85.2396 82.0781 85.4375C80.7552 85.6354 79.4792 85.7344 78.25 85.7344C77.8333 85.7344 77.4219 85.724 77.0156 85.7031C76.6094 85.6823 76.224 85.6406 75.8594 85.5781L75.25 62.375C76.875 62.25 78.3594 62.1875 79.7031 62.1875C80.2865 62.1875 80.875 62.1979 81.4688 62.2188C82.0625 62.2396 82.6667 62.2708 83.2812 62.3125C84.5104 62.4062 85.7031 62.5938 86.8594 62.875C88.026 63.1458 89.1302 63.5365 90.1719 64.0469C91.2031 64.5573 92.1094 65.2292 92.8906 66.0625C93.6615 66.9062 94.2708 67.9375 94.7188 69.1562C95.1771 70.375 95.4062 71.8281 95.4062 73.5156ZM92.4688 73.3594C92.4375 72.3594 92.2656 71.4427 91.9531 70.6094C91.6406 69.7969 91.2135 69.0781 90.6719 68.4531C90.1406 67.8177 89.5156 67.276 88.7969 66.8281C88.4427 66.599 88.0677 66.3958 87.6719 66.2188C87.2865 66.0312 86.8854 65.8646 86.4688 65.7188C85.6354 65.4271 84.7604 65.2135 83.8438 65.0781C82.9271 64.9427 82.0052 64.875 81.0781 64.875C80.6823 64.875 80.2604 64.8906 79.8125 64.9219C79.375 64.9427 78.9219 64.9792 78.4531 65.0312L78.9375 82.7031C79.0208 82.7135 79.1094 82.724 79.2031 82.7344C79.2969 82.7344 79.3906 82.7344 79.4844 82.7344H80.0156C81.0573 82.7344 82.0938 82.6406 83.125 82.4531C85.2396 82.0677 87.0833 81.3385 88.6562 80.2656C89.4375 79.7448 90.1198 79.1302 90.7031 78.4219C91.276 77.7344 91.7188 76.9688 92.0312 76.125C92.3542 75.2708 92.5 74.349 92.4688 73.3594Z" fill="white"/>
</svg>
